HIERARCHY
ROOT ui
{
	 OFFSET 0 0 0
	 CHANNELS 3 XPosition YPosition Z Position
	 EndSite
	 {
	 OFFSET 0 -1 0
	 }
}
ROOT li
{
	 OFFSET 0 0 0
	 CHANNELS 3 XPosition YPosition Z Position
	 EndSite
	 {
	 OFFSET 0 -1 0
	 }
}
ROOT ul
{
	 OFFSET 0 0 0
	 CHANNELS 3 XPosition YPosition Z Position
	 EndSite
	 {
	 OFFSET 0 -1 0
	 }
}
ROOT ll
{
	 OFFSET 0 0 0
	 CHANNELS 3 XPosition YPosition Z Position
	 EndSite
	 {
	 OFFSET 0 -1 0
	 }
}
ROOT tt
{
	 OFFSET 0 0 0
	 CHANNELS 3 XPosition YPosition Z Position
	 EndSite
	 {
	 OFFSET 0 -1 0
	 }
}
ROOT tb
{
	 OFFSET 0 0 0
	 CHANNELS 3 XPosition YPosition Z Position
	 EndSite
	 {
	 OFFSET 0 -1 0
	 }
}
ROOT td
{
	 OFFSET 0 0 0
	 CHANNELS 3 XPosition YPosition Z Position
	 EndSite
	 {
	 OFFSET 0 -1 0
	 }
}
ROOT v
{
	 OFFSET 0 0 0
	 CHANNELS 3 XPosition YPosition Z Position
	 EndSite
	 {
	 OFFSET 0 -1 0
	 }
}
ROOT bn
{
	 OFFSET 0 0 0
	 CHANNELS 3 XPosition YPosition Z Position
	 EndSite
	 {
	 OFFSET 0 -1 0
	 }
}
MOTION
Frames: 16
Frame Time: 0.002
0.002376673936843872	-1.5615000389516353E-5	0		0.4616545715332031	-2.376523193359375	0		-1.0688685302734375	-0.0019151530265808106	0		-0.83377880859375	-2.33499853515625	0		1.569010009765625	-0.4909696044921875	0		3.215802001953125	0.04069590377807617	0		4.64782421875	0.07849600982666016	0		5.5572783203125	0.09258479309082031	0		-0.1176925048828125	5.93750146484375	0		
-0.0027685561180114744	-0.005636332988739013	0		0.40591934204101565	-2.375092041015625	0		-1.0801103515625	-0.012544898986816407	0		-0.8115143432617188	-2.33424853515625	0		1.5828804931640625	-0.4987755126953125	0		3.187538818359375	0.02990897750854492	0		4.6487861328125	0.07930938720703125	0		5.55823828125	0.09350637817382812	0		-0.1335814208984375	5.9300625	0		
0.0013296380043029785	-0.0024396839141845703	0		0.460133544921875	-2.380818359375	0		-1.079069091796875	-0.012417139053344727	0		-0.8481904907226563	-2.333349609375	0		1.56500244140625	-0.49696221923828127	0		3.188574951171875	0.030543134689331054	0		4.6467001953125	0.07417645263671875	0		5.5493076171875	0.09661605834960937	0		-0.133245361328125	5.930302734375	0		
-0.004699245929718017	-0.009055007934570312	0		0.4086218566894531	-2.37449267578125	0		-1.0779627685546875	-0.012294761657714844	0		-0.8000165405273437	-2.344107666015625	0		1.5851422119140626	-0.49789984130859377	0		3.18967626953125	0.031161573410034178	0		4.63679833984375	0.07517715454101563	0		5.5404033203125	0.09770233917236328	0		-0.14703993225097656	5.9198076171875	0		
0.003602077007293701	-0.0019542549848556518	0		0.43804925537109374	-2.374748291015625	0		-1.056855712890625	-0.01556222152709961	0		-0.8304468383789062	-2.336345703125	0		1.575328369140625	-0.4992734069824219	0		3.21595068359375	0.03727363967895508	0		4.6420908203125	0.08285477447509766	0		5.55151904296875	0.09636730194091797	0		-0.2647248229980469	5.9112998046875	0		
-7.512000203132629E-5	0.0033660950660705565	0		0.4415646667480469	-2.372515380859375	0		-1.0674345703125	-0.005221212863922119	0		-0.7930372924804687	-2.339896484375	0		1.6076207275390626	-0.4984743957519531	0		3.1920625	0.032318729400634766	0		4.64330810546875	0.0835716552734375	0		5.55273486328125	0.09718049621582031	0		-0.11652053833007812	5.9416796875	0		
0.006110490798950196	-0.00151556396484375	0		0.4659439697265625	-2.3796953125	0		-1.0742838134765624	-0.01196072292327881	0		-0.830497802734375	-2.338020263671875	0		1.5699971923828124	-0.49536114501953127	0		3.218450927734375	0.0383702507019043	0		4.65456103515625	0.08305338287353516	0		5.55819677734375	0.10786434173583985	0		-0.1310327911376953	5.93116796875	0		
0.0025404160022735596	0.0037779269218444823	0		0.44055661010742186	-2.375943115234375	0		-1.072948486328125	-0.011859443664550781	0		-0.7788080444335937	-2.330844970703125	0		1.607275390625	-0.5006997375488281	0		3.198766357421875	0.038260448455810545	0		4.6558876953125	0.08367658233642578	0		5.5553701171875	0.10064704132080078	0		-0.13121981811523437	5.9323740234375	0		
0.001696136951446533	-0.007997204780578613	0		0.44213473510742185	-2.375721923828125	0		-1.05975634765625	-0.021987693786621094	0		-0.8294317626953125	-2.3407421875	0		1.57279931640625	-0.4947043762207031	0		3.1911845703125	0.04087874984741211	0		4.65414990234375	0.07830351257324218	0		5.54674560546875	0.10147916412353515	0		-0.27790496826171873	5.90332470703125	0		
0.013306933403015137	0.001983091950416565	0		0.4218691711425781	-2.368107666015625	0		-1.050200439453125	-0.015047460556030274	0		-0.786804931640625	-2.33940380859375	0		1.5742598876953124	-0.4944188232421875	0		3.186569091796875	0.039396476745605466	0		4.648701171875	0.0859461441040039	0		5.56812109375	0.09968204498291015	0		-0.12639729309082032	5.92965185546875	0		
0.014766299247741699	0.002138228893280029	0		0.45147698974609374	-2.368449951171875	0		-1.11865283203125	-0.00965178394317627	0		-0.8190945434570313	-2.3336650390625	0		1.58188134765625	-0.48727621459960935	0		3.237111083984375	0.04383903121948242	0		4.6591162109375	0.08423313903808594	0		5.56372509765625	0.10830751037597657	0		-0.11113679504394532	5.9395341796875	0		
0.013196076393127441	-6.658669710159302E-4	0		0.44696548461914065	-2.375173095703125	0		-1.0671943359375	-0.011508665084838866	0		-0.7964634399414062	-2.33296435546875	0		1.596242431640625	-0.4952901611328125	0		3.204506591796875	0.039794261932373044	0		4.661615234375	0.08561392974853516	0		5.57523974609375	0.11057088470458984	0		-0.12613072204589842	5.931966796875	0		
0.007565591812133789	-0.007411158084869385	0		0.44857675170898437	-2.375029296875	0		-1.0656951904296874	-0.011436729431152344	0		-0.8229981689453125	-2.340357177734375	0		1.5757125244140624	-0.49768182373046876	0		3.1970419921875	0.04223611068725586	0		4.66310986328125	0.08595778656005859	0		5.5725478515625	0.1010342788696289	0		-0.12491372680664062	5.93208349609375	0		
0.0082107515335083	7.12992012500763E-4	0		0.4501650390625	-2.374905029296875	0		-1.0582926025390624	-0.016481992721557617	0		-0.7844547729492187	-2.34296923828125	0		1.5772279052734375	-0.4975140380859375	0		3.20340576171875	0.03537517166137695	0		4.66149169921875	0.08030213928222656	0		5.56889208984375	0.093451416015625	0		-0.13784967041015625	5.92144677734375	0		
0.017666297912597655	-3.4347200393676757E-4	0		0.42984527587890625	-2.367393310546875	0		-1.1167506103515625	-0.012310194969177245	0		-0.8147737426757813	-2.33530908203125	0		1.5817919921875	-0.49343161010742187	0		3.21498974609375	0.041376182556152344	0		4.660927734375	0.07857074737548828	0		5.569662109375	0.10972557067871094	0		-0.2547353515625	5.91272412109375	0		
0.0191001033782959	-2.6568299531936647E-4	0		0.4842275390625	-2.37328759765625	0		-1.0531605224609375	-0.004406328201293945	0		-0.7753155517578125	-2.33695263671875	0		1.5832362060546874	-0.4933206787109375	0		3.2212919921875	0.03443030548095703	0		4.66750732421875	0.0866529312133789	0		5.5769443359375	0.10181123352050782	0		-0.12104198455810547	5.93234765625	0		
